<?xml version="1.0" standalone="no"?>
<!DOCTYPE svg PUBLIC "-//W3C//DTD SVG 20010904//EN"
 "http://www.w3.org/TR/2001/REC-SVG-20010904/DTD/svg10.dtd">
<svg version="1.0" xmlns="http://www.w3.org/2000/svg"
 width="500.000000pt" height="500.000000pt" viewBox="0 0 500.000000 500.000000"
 preserveAspectRatio="xMidYMid meet">
<metadata>
Created by potrace 1.14, written by Peter Selinger 2001-2017
</metadata>
<g transform="translate(0.000000,500.000000) scale(0.100000,-0.100000)"
fill="#000000" stroke="none">
<path d="M2329 4995 c-2 -1 -40 -6 -83 -10 -43 -4 -88 -8 -100 -11 -11 -2 -38
-6 -61 -10 -226 -33 -492 -122 -734 -246 -124 -63 -312 -183 -387 -247 -17
-14 -51 -42 -75 -61 -43 -34 -222 -210 -285 -280 -197 -220 -411 -608 -494
-895 -82 -288 -109 -481 -105 -770 5 -398 88 -741 265 -1090 131 -259 262
-438 470 -645 318 -316 685 -527 1130 -649 182 -50 355 -72 585 -76 234 -4
359 8 610 59 137 28 345 102 513 183 81 39 291 158 327 185 6 4 48 35 94 69
111 83 155 122 291 259 306 307 523 697 634 1135 25 99 29 119 47 225 35 207
31 592 -7 809 -23 127 -75 319 -120 440 -221 596 -671 1092 -1249 1375 -194
96 -458 184 -629 211 -21 4 -47 8 -56 10 -10 2 -38 6 -62 9 -23 4 -61 9 -83
12 -44 6 -431 15 -436 9z"/>
</g>
</svg>
